<svg width="24" height="17" viewBox="0 0 24 17" fill="none" xmlns="http://www.w3.org/2000/svg">
<path fill-rule="evenodd" clip-rule="evenodd" d="M12.5129 11.8521C12.3625 11.969 12.1774 12.0325 11.9869 12.0325C11.7963 12.0325 11.6112 11.969 11.4608 11.8521L0 2.05745V15.8571C0 16.0845 0.0903058 16.3025 0.251051 16.4632C0.411797 16.624 0.629814 16.7143 0.857143 16.7143H23.1429C23.3702 16.7143 23.5882 16.624 23.7489 16.4632C23.9097 16.3025 24 16.0845 24 15.8571V1.93536L12.5129 11.8521ZM23.1362 0L11.9869 9.57482L0.826676 0.000541027C0.83681 0.000180936 0.846967 0 0.857143 0H23.1362Z" fill="#000000"/>
</svg>
