<svg width="19" height="19" viewBox="0 0 19 19" fill="none" xmlns="http://www.w3.org/2000/svg">
<g clip-path="url(#clip0)">
<path fill-rule="evenodd" clip-rule="evenodd" d="M4.54622 2.28684C4.54622 3.54983 3.52236 4.57368 2.25938 4.57368C0.996388 4.57368 -0.0274658 3.54983 -0.0274658 2.28684C-0.0274658 1.02385 0.996388 0 2.25938 0C3.52236 0 4.54622 1.02385 4.54622 2.28684ZM6.7056 18.9939V6.30657H10.487V8.04156H10.5403C11.0661 7.04551 12.3516 5.99302 14.2695 5.99302C18.2642 5.99302 19 8.61955 19 12.0373V18.995H15.0586V12.8243C15.0586 11.3537 15.0335 9.46091 13.009 9.46091C10.9563 9.46091 10.6449 11.0642 10.6449 12.7198V18.9939H6.7056ZM4.23167 6.30657H0.286138V18.9939H4.23167V6.30657Z" fill="#000000"/>
</g>
<defs>
<clipPath id="clip0">
<rect width="19" height="19" fill="white"/>
</clipPath>
</defs>
</svg>
