<svg width="24" height="24" viewBox="0 0 24 24" fill="none" xmlns="http://www.w3.org/2000/svg">
<path d="M20.3077 2.76923V0.461538C20.3077 0.339131 20.2591 0.221737 20.1725 0.135182C20.086 0.0486263 19.9686 0 19.8462 0H4.15386C4.03145 0 3.91406 0.0486263 3.8275 0.135182C3.74095 0.221737 3.69232 0.339131 3.69232 0.461538V2.76923" fill="#000000"/>
<path d="M20.7692 3.69231H3.23077C2.37392 3.69231 1.55216 4.03269 0.946271 4.63858C0.340384 5.24446 0 6.06622 0 6.92308V18.9231C0 19.0455 0.0486263 19.1629 0.135182 19.2494C0.221737 19.336 0.339131 19.3846 0.461538 19.3846H3.69231V23.5385C3.69231 23.6609 3.74093 23.7783 3.82749 23.8648C3.91404 23.9514 4.03144 24 4.15385 24H19.8462C19.9686 24 20.086 23.9514 20.1725 23.8648C20.2591 23.7783 20.3077 23.6609 20.3077 23.5385V19.3846H23.5385C23.6609 19.3846 23.7783 19.336 23.8648 19.2494C23.9514 19.1629 24 19.0455 24 18.9231V6.92308C24 6.06622 23.6596 5.24446 23.0537 4.63858C22.4478 4.03269 21.6261 3.69231 20.7692 3.69231ZM18 21.4615C18 21.5227 17.9757 21.5814 17.9324 21.6247C17.8891 21.668 17.8304 21.6923 17.7692 21.6923H6.23077C6.16957 21.6923 6.11087 21.668 6.06759 21.6247C6.02431 21.5814 6 21.5227 6 21.4615V12.6923C6 12.6311 6.02431 12.5724 6.06759 12.5291C6.11087 12.4858 6.16957 12.4615 6.23077 12.4615H17.7692C17.8304 12.4615 17.8891 12.4858 17.9324 12.5291C17.9757 12.5724 18 12.6311 18 12.6923V21.4615ZM19.9615 9.22615C19.6791 9.24885 19.3966 9.18437 19.152 9.04142C18.9074 8.89846 18.7125 8.68391 18.5937 8.42672C18.4748 8.16952 18.4378 7.88207 18.4875 7.60315C18.5371 7.32422 18.6712 7.06725 18.8715 6.86692C19.0719 6.66658 19.3288 6.53252 19.6078 6.48283C19.8867 6.43314 20.1741 6.47021 20.4313 6.58904C20.6885 6.70787 20.9031 6.90273 21.046 7.14734C21.189 7.39194 21.2535 7.67452 21.2308 7.95692C21.2044 8.28475 21.0622 8.5925 20.8297 8.82506C20.5971 9.05762 20.2894 9.1998 19.9615 9.22615Z" fill="#000000"/>
</svg>
