<svg width="20" height="16" viewBox="0 0 20 16" fill="none" xmlns="http://www.w3.org/2000/svg">
<path d="M17.633 3.997C17.646 4.172 17.646 4.346 17.646 4.52C17.646 9.845 13.593 15.981 6.186 15.981C3.904 15.981 1.784 15.32 0 14.172C0.324 14.209 0.636 14.222 0.973 14.222C2.856 14.222 4.589 13.586 5.974 12.501C4.203 12.464 2.719 11.304 2.207 9.708C2.456 9.745 2.706 9.77 2.968 9.77C3.329 9.77 3.692 9.72 4.029 9.633C2.182 9.259 0.799 7.638 0.799 5.68V5.63C1.336 5.929 1.959 6.116 2.619 6.141C1.534 5.419 0.823 4.184 0.823 2.787C0.823 2.039 1.022 1.353 1.371 0.755C3.354 3.198 6.335 4.795 9.677 4.97C9.615 4.67 9.577 4.359 9.577 4.047C9.577 1.827 11.373 0.0190001 13.605 0.0190001C14.765 0.0190001 15.812 0.505 16.548 1.291C17.458 1.116 18.33 0.779 19.104 0.318C18.805 1.253 18.168 2.039 17.333 2.538C18.144 2.45 18.93 2.226 19.652 1.914C19.104 2.712 18.419 3.423 17.633 3.997Z" fill="#000000"/>
</svg>
