<svg xmlns="http://www.w3.org/2000/svg" viewBox="0 0 75 62.9"><title>china-outline</title><g id="Layer_2" data-name="Layer 2"><g id="Layer_1-2" data-name="Layer 1"><g opacity="0.5"><path d="M59.6.15A4.32,4.32,0,0,1,59,.37a4,4,0,0,0-.75.34,2.14,2.14,0,0,1-.67.29c-.14,0-.27.11-.55.49a3.94,3.94,0,0,0-.4.62c0,.15.11.22.35.16s.45.07.54.61c0,.37,0,.52,0,.57a1.43,1.43,0,0,0-.57.92.57.57,0,0,1-.07.33s-.07.15-.07.29,0,.27-.08.29a.38.38,0,0,0-.07.24,1.79,1.79,0,0,1-.18.57c-.17.36-.17.36,0,.39.38.06.22.52-.22.66-.17.05-.3.12-.3.15a2.52,2.52,0,0,1-.35.48c-.24.29-.37.4-.45.36a5.12,5.12,0,0,0-.56-.1L54,7.92c-.14,0-.17,0-.4.78a4.43,4.43,0,0,0-.23,1,.71.71,0,0,1-.14.38.53.53,0,0,0-.1.41.32.32,0,0,1-.11.32c-.23.24-.15.56.18.74s.26.13.42,0a1.32,1.32,0,0,1,.49-.23.53.53,0,0,1,.55.07,1,1,0,0,0,.42.13c.16,0,.22-.05.3-.31s.13-.32.44-.37a.89.89,0,0,1,.74.12,1.85,1.85,0,0,0,.51.2.12.12,0,0,1,.12.11c0,.06.16.19.34.3.59.34,1,1,.66,1.27a3.86,3.86,0,0,1-.93.11c-.76,0-.84,0-1,.22a.63.63,0,0,1-.43.19c-.2,0-.25,0-.31.22s-.12.22-.34.22a.69.69,0,0,0-.43.13,1.62,1.62,0,0,0-.47,1c0,.14,0,.24-.12.27a1.15,1.15,0,0,0-.35.24,2.13,2.13,0,0,1-1.19.44c-.21,0-.24,0-.24.17s-.6.81-1,1A2,2,0,0,1,50,16.82a.87.87,0,0,0-.52-.14h-.34l-.3.62-.3.62.3.35a4.76,4.76,0,0,0,.44.48.3.3,0,0,1,.11.26,2.53,2.53,0,0,1-.87.69,1.53,1.53,0,0,0-.44.44c-.44.68-.7.93-.93.93a1,1,0,0,0-.48.19,1,1,0,0,1-.58.18.56.56,0,0,0-.35.08c0,.05-.24.07-.5.06a2.58,2.58,0,0,0-.73.07.51.51,0,0,1-.4,0c-.09-.05-.17,0-.31.07a.77.77,0,0,1-.38.14,5.72,5.72,0,0,0-2,.95l-.69.46-.25-.12c-.18-.09-.24-.16-.24-.3s0-.18-.27-.07-.68.14-1.4-.14a6.33,6.33,0,0,0-.94-.3.83.83,0,0,1-.68-.47.46.46,0,0,0-.48-.23,9.37,9.37,0,0,1-1.11-.15c-.53-.09-.82-.12-.87-.07a4.43,4.43,0,0,1-2-.08,2.9,2.9,0,0,0-1.21-.07.37.37,0,0,1-.39,0,1.59,1.59,0,0,0-.59-.11c-.33,0-.36,0-.36-.17a.78.78,0,0,0-.25-.41,1.84,1.84,0,0,1-.45-.95,2.41,2.41,0,0,0-.34-.81.4.4,0,0,1-.14-.31c0-.19,0-.21-.23-.21s-.36-.1-.68-.37a2.88,2.88,0,0,0-.59-.41,1.69,1.69,0,0,1-.47-.36c-.32-.3-.36-.31-.92-.36a7.27,7.27,0,0,1-1.52-.33l-.93-.3-.08-.27c-.1-.39-.1-.4.15-.68a.85.85,0,0,0,.22-.67c0-.28,0-.44.12-.51s.08-.68-.15-1a1.43,1.43,0,0,1-.23-.59c-.07-.46-.44-1-.64-.94s-.15,0-.22-.16-.11-.18-.23-.14-.28.06-.43.09-.27,0-.27-.09a2.06,2.06,0,0,0-.13-.48.67.67,0,0,0-.43-.5c-.25-.12-.3-.18-.27-.3a.5.5,0,0,0-.09-.34c-.1-.16-.11-.22,0-.36s.05-.31-.38-.29l-.62,0c-.22,0-.24,0-.24.24,0,.39-.3.61-.87.68s-.46.06-.63.36-.19.4-.19,1c0,.74,0,.79-.57,1s-.49.15-.7-.06A.62.62,0,0,0,16,12a1.1,1.1,0,0,1-.65-.22c-.67-.42-.57-.46-1.11.47a6.35,6.35,0,0,0-.49,1,1.54,1.54,0,0,1-.25.47l-.25.34.15.16c.14.13.15.18.06.37s-.22.31-.22.16-.13-.1-.29-.15a.67.67,0,0,1-.36-.19c0-.09-.19-.1-1.12,0a7.33,7.33,0,0,0-1.22.15c-.21.11-.13.3.13.3a.43.43,0,0,1,.3.12c.07.09.07.15,0,.34s-.14.37-.13,1c0,.4,0,.92.06,1.15l.05.43H10.4c-.19,0-.23,0-.23.18s0,.18-.13.18-.38.24-.42.56c-.08.51-.18.69-.39.69a.46.46,0,0,0-.27.07,5.07,5.07,0,0,1-1,.26c-.85.17-.93.2-1.14.45l-.22.24-.57-.07a4.84,4.84,0,0,1-.86-.18l-.29-.1-.38.43-.38.44h-1l0-.26c-.06-.3-.14-.37-.29-.26a.49.49,0,0,1-.38,0,1.12,1.12,0,0,0-.7.15,2.35,2.35,0,0,1-.59.18.58.58,0,0,0-.53.49c0,.16,0,.23-.24.32a.41.41,0,0,0-.23.61c0,.17,0,.23-.05.3s-.1.16-.09.33.05.26.34.3a.91.91,0,0,1,.59.31c.26.26.26.27.17.6A4.53,4.53,0,0,0,1,25v.57H.4a.23.23,0,0,0-.25.11c-.06.18.43.62.7.62s.38.12.38.34,0,.16.12.12a.38.38,0,0,1,.29.13.74.74,0,0,1,.05.89.24.24,0,0,0,0,.32.88.88,0,0,1,.08.33c0,.13,0,.13.28.1s.28,0,.37.21a2.25,2.25,0,0,0,1.44.93c.23,0,.26,0,.24.16s0,.44,0,.78c.06.59.06.61.33.78a1.35,1.35,0,0,1,.39.4C5,32,5,32,4.84,32s-.44.38-.22.45c.06,0,0,.08,0,.21a.76.76,0,0,0,.28,1.07c.11,0,.16.08.13.14a1.21,1.21,0,0,0,0,.43c.11.42,0,.6-.35.65L4.26,35c-.13,0-.16,0-.2-.22s-.07-.26-.3-.26-.26,0-.26.34a1.13,1.13,0,0,0,.16.59c.14.23.14.27,0,.37s-.09.16,0,.31a.47.47,0,0,1-.05.44c-.11.24-.11.24.05.19a.67.67,0,0,0,.24-.12c.09-.09.26.15.26.38s.27.58.45.58.74.45.7.6,0,.18.19.29c.45.3.86.75.86.92s.21.3.34.1a1.28,1.28,0,0,1,.58-.37s0,0,0,.1.45.51,1,.81a3.14,3.14,0,0,1,.5.41A.69.69,0,0,0,9,40.7c.13,0,.49.63.49.86a.34.34,0,0,0,.16.3c.14.09.17.07.32-.1s.17-.19.31-.12.19.16.1.51-.06.25.42.62a3.66,3.66,0,0,0,.52.37l.21-.06c.15,0,.16,0,.16.24s.07.38.43.38c.16,0,.26.07.42.31l.23.35s.09,0,.17-.06.16-.08.19.05.33.27.41.12.32-.12.77.23l.42.41h.62a7.54,7.54,0,0,0,1-.19,1.1,1.1,0,0,1,.49-.09c.12,0,.15.59,0,.77s0,.45.19.45a2,2,0,0,0,.68-.66,2.56,2.56,0,0,1,.87-.55c.28-.08.67,0,.67.18a.22.22,0,0,0,.13.18,5.76,5.76,0,0,0,1.12.17.67.67,0,0,1,.71.39c0,.23.09.25.86.22.46,0,.66-.13.78-.43,0-.09.12-.16.18-.16a1.21,1.21,0,0,0,.7-.57c.06-.14.1-.17.25-.14s.61-.1,1.21-.58.73-.48.84-.24.17.19.57.25.5.07.62-.08a1.26,1.26,0,0,1,.47-.28c.33-.1.35-.1.47,0s.12.16,0,.4-.11.39.21.27.25-.07.37.06.12.17-.1.4a.8.8,0,0,0-.22.35c0,.14,0,.15.26.06s.2,0,.35.11a.77.77,0,0,0,.41.18.5.5,0,0,1,.29.08c.06.07.11,0,.23-.1s.35-.2.71.07a.59.59,0,0,1,.28.44c0,.15.1.44.16.63s.12.34.22.25a.4.4,0,0,1,.26-.08c.14,0,.17.09.18.41a4.09,4.09,0,0,1-.14,1.86c-.15.29-.15.31,0,.5s.17.26-.08.26-.23,0-.27.22-.09.22-.21.22-.18.06-.23.23-.13.25-.22.27a.42.42,0,0,0-.37.46c0,.15,0,.21-.15.28s-.19.11-.14.47a2.12,2.12,0,0,1,0,1c-.06.21.05.22.32,0a1.7,1.7,0,0,1,1.13-.19c.28,0,.33.07.3.19a.66.66,0,0,0,.06.37,1.41,1.41,0,0,1,.08.43c0,.11,0,.22.06.25a.35.35,0,0,1,.07.22c0,.24.14.33.53.33s.35,0,.35.16a.73.73,0,0,1-.15.36.73.73,0,0,0-.15.38.89.89,0,0,1-.19.46c-.1.13-.15.25-.12.28a4.5,4.5,0,0,0,1,.27c.2,0,.2,0,.17.25s0,.27.15.34a.3.3,0,0,1,.19.26c0,.15,0,.16.18.09a.45.45,0,0,1,.38,0c.18.06.25,0,.45-.13s.53-.28.53,0a.37.37,0,0,0,.11.26.41.41,0,0,1,.11.27c0,.16,0,.17.31.16a1.76,1.76,0,0,1,.49,0l.17.06,0-.62c0-.46,0-.66-.16-.76a.78.78,0,0,1,0-.78c.08-.1.11-.11.18,0s.57.1.82-.13a.8.8,0,0,0,.22-.31c0-.18.3-.07.69.25l.21.18.28-.28c.27-.26.29-.27.38-.14s.11.13.22,0l.12-.17.25.19c.31.24.41.25.41,0s.19-.26.4-.14.21.06.38,0c.35-.19.47-.31.47-.47s.12-.22.38-.38l.38-.24.18.23a.59.59,0,0,0,.36.23.2.2,0,0,1,.2.14c0,.16.15.19.43.08s.2-.05.24,0,.14.07.28.06c.49,0,.55,0,.55.21a.53.53,0,0,1-.14.35c-.19.17-.19.27,0,.43a.67.67,0,0,1,.17.32c0,.14.07.21.17.22a.8.8,0,0,1,.29.19,1.23,1.23,0,0,0,1.08.39c.22,0,.31,0,.41.05s.67.09.67,0,.07-.07.16-.08a.27.27,0,0,0,.21-.19l0-.18.18.19a.55.55,0,0,0,.42.19c.13,0,.25,0,.26.08s.72,0,.72-.14,0-.09.12.05a.43.43,0,0,0,.29.16c.2,0,.21.05.07.25s-.16.85-.05.85.09.11.11.26.1.28.16.3a.21.21,0,0,1,.11.18c0,.11,0,.14.4.14s.41,0,.51-.22.1-.22-.07-.34a.39.39,0,0,1-.19-.29.21.21,0,0,0-.14-.22c-.08,0-.15-.09-.15-.14s0-.09.11-.07c.24.1.47,0,.56-.33s.32-.45,1.14-.7a3.37,3.37,0,0,0,.66-.31,1.21,1.21,0,0,1,.57-.21,1.88,1.88,0,0,0,.88-.25,1.61,1.61,0,0,1,.29-.09c.08,0,.17-.12.22-.25s.12-.21.17-.19a.25.25,0,0,0,.22-.07,1.22,1.22,0,0,1,.26-.16c.1,0,.12-.1.08-.36a2.83,2.83,0,0,0-.15-.59c-.09-.2-.1-.3,0-.35s.11,0,.18.09c.19.36.47.65.64.65a1.59,1.59,0,0,0,.43-.11.62.62,0,0,1,.39-.07c.11,0,.14,0,.16-.17s.28-.34.28-.13.21.19.48-.11.29-.3.38-.15.35.2.4,0a.16.16,0,0,1,.18-.13,1,1,0,0,0,.5-.15,4,4,0,0,1,.58-.23c.18,0,.23-.08.25-.24a.34.34,0,0,1,.17-.27.68.68,0,0,0,.21-.4c.06-.21.13-.33.2-.33a1,1,0,0,0,.39-.3,1.34,1.34,0,0,1,.35-.29A2.35,2.35,0,0,0,62,51a.62.62,0,0,0,.12-.42c0-.1,0-.15.06-.15a.39.39,0,0,0,.23-.14.53.53,0,0,1,.31-.15c.16,0,.17,0,.13-.26s0-.25.18-.25.23,0,.23-.22,0-.22.11-.22.24-.22.23-.41,0-.14.26-.12.27,0,.27-.12a.22.22,0,0,0-.11-.19.19.19,0,0,1-.11-.14A.4.4,0,0,1,64,48a.46.46,0,0,0,0-.57c-.07-.11,0-.18.08-.39s.15-.24.09-.27a.91.91,0,0,1-.27-.17c-.31-.24-.11-.34.36-.16.09,0,.12,0,.12-.14a.47.47,0,0,1,.14-.31.43.43,0,0,0,.15-.29.44.44,0,0,1,.14-.29A.86.86,0,0,0,65,45a13.54,13.54,0,0,1,.54-1.66s.06,0,.11,0,.19.11.24-.06a.33.33,0,0,1,.22-.19l.17,0-.15-.25a.48.48,0,0,1-.09-.42c.11-.24,0-.55-.12-.6s.18-.24.18-.24h.33l-.1-.35c0-.19-.12-.4-.14-.46a.18.18,0,0,1,.07-.21c.14-.12,0-.22-.27-.22a.73.73,0,0,1-.43-.26.88.88,0,0,0-.37-.26,1.91,1.91,0,0,0-.51.3c-.35.26-.4.28-.51.18s-.15-.1-.34,0-.3,0-.17-.18S63.82,40,64,40s.58-.11.58-.29.12-.19.28-.28a.81.81,0,0,0,.33-.28.7.7,0,0,1,.3-.22c.38-.15.36-.39-.1-.72a1.54,1.54,0,0,0-.48-.26.51.51,0,0,1-.26-.15.59.59,0,0,0-.45-.14c-.27,0-.33,0-.41-.2s-.08-.19.08-.13l.39.1a1.35,1.35,0,0,1,.47.25,1.64,1.64,0,0,0,.53.23c.24,0,.27,0,.27-.1s-.07-.17-.29-.23c-.4-.11-.44-.22-.08-.22s.36-.05.14-.32a.47.47,0,0,0-.36-.19c-.16,0-.22,0-.22-.14s-.16-.32-.57-.45-.34-.14-.36-.4a1.16,1.16,0,0,0-.33-.64,8.23,8.23,0,0,1-.67-1.07l-.38-.71L62,33.31a1.82,1.82,0,0,1-.63-.24.52.52,0,0,0-.29-.12c-.17,0-.26-.29-.16-.46a.61.61,0,0,0,.06-.25.32.32,0,0,1,.11-.24.6.6,0,0,0,.15-.31c0-.16.09-.21.22-.21s.18-.05.22-.22a1.05,1.05,0,0,1,.19-.4c.13-.16.13-.19,0-.19s-.12-.05-.12-.14.12-.25.21-.11.08.11.3,0,.23-.16.22-.32,0-.28.35-.58a2.46,2.46,0,0,1,.46-.39,1.42,1.42,0,0,0,.37-.27l.3-.27.22.13a.56.56,0,0,0,.24.11,4,4,0,0,0,.18-.56l.15-.53H64.5a.89.89,0,0,1-.4-.08.2.2,0,0,0-.27,0c-.2.17-.36.2-.82.15s-.44-.07-.44-.17-.09-.16-.19-.21-.24-.06-.55.14-.36.28-.36.36-.1.2-.22.27-.22.16-.22.22a.74.74,0,0,1-.16.27c-.12.16-.21.19-.5.19a.83.83,0,0,1-.43-.08,1,1,0,0,1-.09-.51,1.08,1.08,0,0,0-.16-.66c-.17-.25-.45-.36-.59-.22a1.26,1.26,0,0,1-1,0,1.09,1.09,0,0,1-.39-.35l-.16-.23.15-.49c.16-.52.34-.67.57-.47s.24.14.36,0a.87.87,0,0,1,.4-.14c.28-.05.31-.08.43-.41a2,2,0,0,0,.12-.53.44.44,0,0,1,.11-.27.32.32,0,0,0,.11-.19.1.1,0,0,1,.1-.1,3.84,3.84,0,0,0,.59-.38c.33-.24.49-.41.49-.51a1,1,0,0,1,.19-.4,1.56,1.56,0,0,0,.25-.5c.06-.2.12-.27.3-.3a.41.41,0,0,1,.32,0c.09.08.13.08.22,0s.14-.07.2,0a.44.44,0,0,0,.28.09c.15,0,.22.05.29.22s.06.27-.11.68a2.34,2.34,0,0,1-.37.61.57.57,0,0,0-.18.35c0,.1,0,.2-.07.22s-.08.07-.08.1.37.23.52.23.11,0,0,.33-.16.35-.36.42-.25.14-.25.22,0,.16.41.05c.21-.06.32-.12.32-.2s.1-.18.21-.24a1.06,1.06,0,0,0,.37-.41,2.76,2.76,0,0,1,1.05-1c.07,0,.13-.07.15-.15a.2.2,0,0,1,.19-.14.24.24,0,0,0,.19-.08.33.33,0,0,1,.23-.07.92.92,0,0,0,.84-.73,4.15,4.15,0,0,1,.93-1.1s.17-.13.25-.3a1,1,0,0,1,.33-.33c.22-.05.44-.44.53-.94s.36-.86.63-.56.53.19,1.14.05.57-.3.22-.63c-.13-.12-.22-.26-.21-.31a1.12,1.12,0,0,1,.77-.35.48.48,0,0,0,.46-.52c0-.25.08-.34.3-.37a.41.41,0,0,0,.23-.59c-.12-.18,0-.5.13-.5s.18.11.26.24.2.23.37.23.22,0,.25-.25a.39.39,0,0,1,.24-.35c.19-.09.2-.13.2-.61a1.69,1.69,0,0,0-.1-.68,1.48,1.48,0,0,1-.16-.49,3.09,3.09,0,0,0-.37-.91,4.09,4.09,0,0,1-.32-.66s.11-.13.23-.19.33-.22.39-.61c0-.23.06-.26.13-.18s.23.1.73.07c.74,0,.83-.1.71-.43a.47.47,0,0,1,.07-.5.57.57,0,0,0,.11-.44.42.42,0,0,1,0-.28,5.53,5.53,0,0,0,.07-1.91c0-.86,0-.89.13-1.08a.5.5,0,0,0,0-.76A.53.53,0,0,1,74.66,6c0-.25,0-.27-.24-.3s-.33,0-.62.28-.39.35-.39.41-.06.13-.2.13-.77.49-.71.7,0,.18-.5.34c-.93.34-1.18.4-1.21.3a.82.82,0,0,0-.3-.24c-.24-.14-.27-.17-.24-.43s0-.3-.2-.44a.43.43,0,0,1-.23-.39c0-.21,0-.22-.26-.17s-.3,0-.54-.17a1.12,1.12,0,0,0-1-.33.68.68,0,0,1-.55-.11c-.24-.14-.28-.15-.47,0a1.66,1.66,0,0,1-.54.11c-.45,0-.64-.17-.69-.62,0-.26-.08-.37-.17-.39a.19.19,0,0,1-.14-.18c0-.23-.19-.51-.55-.84a1.1,1.1,0,0,1-.33-.46.7.7,0,0,0-.19-.36,1,1,0,0,1-.18-.28A.74.74,0,0,0,64,2.28a.73.73,0,0,1-.22-.38.26.26,0,0,0-.1-.22,1.36,1.36,0,0,1-.23-.33A.55.55,0,0,0,63.22,1c-.08,0-.14-.07-.14-.11S62.6.41,62.44.41A1.09,1.09,0,0,1,62.1.34a.54.54,0,0,0-.41,0c-.19.07-.27.06-.63-.13A1.53,1.53,0,0,0,59.6.15Z" fill="#fff"/><path d="M51,59.49c0,.08-.16.11-.39.11a1,1,0,0,0-.48.11.64.64,0,0,1-.49.07c-.27,0-.34,0-.38.07s-.13.12-.29.12-.26,0-.3.21a1.19,1.19,0,0,1-.41.53l-.37.31v.46a1.24,1.24,0,0,0,.07.5c.05,0,.08.16.08.3s0,.25.39.36a3.13,3.13,0,0,0,.62.11c.12,0,.25,0,.27.08a.42.42,0,0,0,.26.07c.18,0,.22,0,.22-.18s0-.18.28-.22a.91.91,0,0,0,.46-.23.49.49,0,0,1,.25-.18c.13,0,.25-.24.25-.51a1.61,1.61,0,0,1,.41-1.11.59.59,0,0,0,.25-.55c0-.26,0-.32-.13-.32a.58.58,0,0,1-.28-.11C51.06,59.36,51,59.35,51,59.49Z" fill="#fff"/></g></g></g></svg>