<svg xmlns="http://www.w3.org/2000/svg" viewBox="0 0 75 29.84"><title>malaysia-outline</title><g id="Layer_2" data-name="Layer 2"><g id="Layer_1-2" data-name="Layer 1"><g opacity="0.5"><g id="Plan_1"><path d="M.47,7.45c-.09.06,0,.16-.06.27a4.37,4.37,0,0,0-.09.5c0,.08.08.1.11.18s0,.18.06.28a.81.81,0,0,0,.4-.74c0-.08-.06-.12-.08-.2a.38.38,0,0,0-.34-.29ZM0,2.87A13.36,13.36,0,0,1,1.2,7.64c.18,1.64-.2,2.15,1.24,3.11-.1,0-.22-.05-.33-.07.07.16.41.12.41.15s-.83,1.46.1,1.12a2.94,2.94,0,0,0-.44,1.11c0,.42.25.19.33.38s.37,1.18.71,1.18.54-.14.37.41c-.19-.47-1-.38-.87.2,0,.06.58.32.63.38.48.58,1.09,1.19,1.58,1.87.76,1.05.45,1.24.74,2.13s.86,1.19,1.75,1.81c.43.29.61.49,1,.82s1,.79,1.5,1.11c1.49,1,1.7.61,3-.15-.31.93-1.41.62-.57,1.63a1.34,1.34,0,0,0,1.32.39c-.35.64,1.42.93,1.66,1.21.43.48.32,1.06.86,1.6.79-.57.82-1.24,2-1,.33.07.8.51,1,.53,1.48.09.74-1,.28-2.13A28,28,0,0,0,18,22.3a7.41,7.41,0,0,0-2.35-2.06c.08-.17.24-.3.37-.13a6.27,6.27,0,0,0-.06-3c.31-.35-.36-.56-.4-1.18,0-.22.23-1.16.46-1.1-.3-.91.26-1.87.16-2.91a5.08,5.08,0,0,0-.87-2.39,7.69,7.69,0,0,0-1.16-2c-.61-.59-1.4-.88-2-1.47s-1-1.86-1.77-1.7A.43.43,0,0,0,10.62,4c-.49-.06-.48.36-1-.08C9.49,4.68,8.39,6,7.94,6.05c-.61,0-.5-.64-1.09-.64a2.23,2.23,0,0,0-1.07.46c-.43.33-.77,1.75-1.44.34-.35-.75.58-1.55.48-2.48-1.36,0-1.05-.48-2.28-1.12-.22-.11-.76-.12-1.07-.26.06,0-1.18-.78-.68-.71C-.11,1.52.26,2.12,0,2.87ZM53.88,23.6c-.06-.25-.14-.24-.24,0A.34.34,0,0,0,53.88,23.6ZM55.49,23a.5.5,0,0,0-.26.51c.23-.05.32,0,.53-.07C55.72,23.27,55.57,23.22,55.49,23Zm-.63-.37c-.26,0-.34.07-.23.33a.29.29,0,0,1,.16,0C54.69,23.32,54.93,22.55,54.86,22.66Zm-1-.15a.64.64,0,0,0,.22,1C54,23.16,53.94,22.82,53.84,22.51Zm1.89.19c0,.41-.13.26.08.54C55.92,23.09,56.05,22.7,55.73,22.7Zm-.94-.45c0,.22.67.62.82.47C55.48,22.64,55,21.68,54.79,22.25Zm-.59-1.41c.08.51-.12,1.39.31,1.72C54.56,22.48,54.72,20.26,54.2,20.84ZM27.54,24.51c-.34.69,0,.34.13.81A3.73,3.73,0,0,0,28.56,27c.65.75,1.58,1.52,2.31,2.2,1.52,1.43,2.16.17,3.82-.06s3.6.8,5.08-.58c.77-.71.58-1.61,1.7-2a10.18,10.18,0,0,1,3.08-.12,1.29,1.29,0,0,1-.15.81,4.55,4.55,0,0,1,2.91,1.09,4.43,4.43,0,0,1,2-1.25c.72-.19,2,.27,2.64-.08.26-.15.37-.81.54-1.1.07-.12.43-.89.4-.8,0-.07.44-.25.48-.54s-.6-.37-.47-.84c.24-.81.74-.35.74-1.19.28,0,1.57-.38,1.57-.88-1.77-.14,0-2,.25-2.45.17.54.48.36.81,0a2.17,2.17,0,0,0,.53-1.58c0-.45-.13-1.89-.13-2.48a6.78,6.78,0,0,1,1-1.39c.74-.88.58-.88,1.67-.34.54-1.11,1.59-.07,2.28-.16,0-.05-.23-.56,0-.56a1.47,1.47,0,0,1,.52.53A5,5,0,0,1,64.45,13c1.11.24,2,.9,3.39.92-.35-.32-.89-.54-1,0-.33-.56-.24-.5-.24-.91a1.77,1.77,0,0,1-.3-.31c0-.63,1.31.38,1.31.38.73.37.7.42,1.46.34.52-.06,1.25-.08,1-.62.26.53,1.66.09,1.66-.1s-.26-.5-.4-.5a2,2,0,0,0-.28.47,1.11,1.11,0,0,1-.22-.89c.14,0,.51,0,.58-.12-.38-.26-3.26-.5-1.51-1.73.44-.32,1.23.13,2,.05.42,0,4.52-1.19,2.6-2.26-.22-.12-2.22.34-2.1,0A.73.73,0,0,0,71.85,7c-1-.26,0,.25-.71.25-.19,0-.17-.51-.42-.6-.47-.15-.25.23-.62.23a1,1,0,0,0-1-1.25,2.9,2.9,0,0,1,0,.57c-.3-.15-.71-.12-1-.24.4-.42,1.11-.51.3-1.35-.35.26-.56.81-1.11.66a.73.73,0,0,0,.13.47,3.69,3.69,0,0,0-1.15-.3c.08-.17.6-.28.54-.5l-.57,0a.78.78,0,0,1,.47-.39c0-.33-.37-.34-.55-.4.25-.59,1-.46.88-1.33,0,0-.89-.78-.94-.84-.08.14-.16.28-.23.43-1.17,0-.83-1.72-1.32-2.09s-.71.47-.93.81c-1.72,2.74-.52-.8-1.2-1.14-.55,1.78-1.8,3-2.83,4.23.23-.07.33,0,.21.29-.07-.17-1.15,1.38-1.4,1.74s-1,1.87-1.67.68c-.12.57-1,.84-.91,1.55.07.41.53.33.68,0,.15.37.28.4,0,.9-.4.74-1.54.67-1.63.79-.47.64.88,2.24.88,3,0,.2-.79-.18-.89-.24-.68-.43-.45-.73-.77-1.49-.43-1-1-1-1.1.15-.09.76.82,2.66-.55,3S50.83,12.09,49.65,12c-.77-.07-1.4,2.37-2.29,3.18a23.92,23.92,0,0,0-2.14,2.39,5.18,5.18,0,0,1-3.69,2c-.78.16-3.1,1.1-3.79.81.3.12.46,0,.59.32-.64-.32-1.95-.31-1.85.92,0,.39.11.37.49.47,1.06.3.49-.55,1-.84,0,.41-.47,1-.38,1.26a2.89,2.89,0,0,0,1.05.8c0-.41-1.28.45-1.26.45a10.4,10.4,0,0,1-1.78.16,2.66,2.66,0,0,1,.38.28c-1-.23-.75,1-.7,1.55-.14,0-.2-.14-.3-.21.32.67.78.49.9,1.2a.87.87,0,0,1,1,.4c-.44-.24-.8-.27-1.11-.44s-.18-.62-.68-.67c-1.51-.17.27,1.23.31,1.49-.73-.05-1.44-.8-2.06-1.15-.08.49,0,.8-.58,1,.11,0,.42,0,.42.16,0,.48-.65-.24-.64-.22,1.33-.11,0-.75-.05-.85.19.27-1.11-.67-.78-.67-.48,0-.36.35-.69-.33-.29,1.8.06.34-.39.44a.29.29,0,0,1,0,.32c-.5-.22-.92,0-1.51-.26-.43-.18-1.27-1.43-1.58-1.43Zm46-16.16a.32.32,0,0,0-.34-.18C73,8.23,73.47,8.39,73.58,8.35Z" fill="#fff"/></g></g></g></g></svg>