<svg version="1.1" id="Layer_1" xmlns="http://www.w3.org/2000/svg" xmlns:xlink="http://www.w3.org/1999/xlink" x="0" y="0" viewBox="0 0 252 72" xml:space="preserve" enable-background="new 0 0 252 72"><g><path d="M34.9,24c0.9,0.1,2,0.6,2.5,0.6c0.2,0,0.5,0.2,0.5,1c0,0.7,0.2,2.1,0.2,2.9c0,0.7-0.2,1.1-0.5,1.1c-0.2,0-0.4-0.4-0.5-0.9 c-0.3-1.2-0.9-2.1-1.4-2.5c-1.8-1.4-3.5-1.7-5.3-1.7c-5.3,0-8.7,4.4-8.7,9.4c0,2.2,0.4,4,1.2,5.4c1.8,3.8,5.7,5.3,8.4,5.3 c0.6,0,2.2-0.1,3.6-0.9c1.5-0.8,2.3-1.8,3.1-3.2c0.4-0.7,0.6-0.9,0.7-0.9c0.3,0,0.4,0.7,0.3,1.1c-0.1,0.8-0.9,2.6-1.3,3.3 c-0.1,0.3-0.7,0.7-1,0.9c-0.5,0.2-3.2,0.9-6,0.9c-4.7,0-8.1-2.3-9.4-3.9c-1.3-1.5-2.8-3.8-2.8-7.6c0-3.8,2.2-6.8,3.6-7.9 c2.8-2.3,5.9-3,8.9-3C32.1,23.5,33.6,23.7,34.9,24z"/><path d="M53,24.1c0.2,0.1,0.4,0.6,0.4,0.6c0.1,0.6,0.3,2.5,0.3,2.7c0,0.6,0,0.9-0.2,0.9c-0.3,0-0.7-0.2-0.8-0.7 c-0.4-1.2-1.3-2.2-1.6-2.4c-0.6-0.5-1.4-0.8-2.3-0.8c-2.2,0-3.8,1.7-3.8,3.9c0,2.3,1.7,3.4,4.6,5.3c2.5,1.7,4.6,3.4,4.6,6.4 c0,1.7-0.9,3.5-2.7,4.7c-1.1,0.7-3,1.2-4.5,1.2c-1.1,0-3.3-0.4-4.3-0.9c-0.3-0.2-0.8-0.9-0.8-1.1c-0.2-1.1-0.5-2.6-0.5-3.1 c0-0.1,0.3-0.6,0.5-0.6c0.3,0,0.8,0.9,1.2,1.9c0.9,1.8,3,2.6,4.3,2.6c2.3,0,4-1.6,4-4c0-1.4-0.7-2.9-4.1-5.1 c-2.8-1.8-4.8-3.7-4.8-6.5c0-1.6,0.7-3,1.8-4c1-0.9,2.6-1.6,4.9-1.6C50.7,23.5,52.5,24,53,24.1z"/><path d="M60.1,27.3c-0.1-1.5-0.1-2-1.9-2.3c-0.7-0.1-0.9-0.4-0.9-0.6c0-0.3,0.4-0.4,0.8-0.4c0.9,0,2.5,0.1,3.6,0.1 c1.6,0,2.4-0.1,3.5-0.1c0.5,0,0.8,0.1,0.8,0.4c0,0.3-0.3,0.5-0.9,0.6c-1.9,0.4-1.9,1.2-2,2.1C63,28.1,63,30.3,63,36.8 c0,1.8,0,3.9,0.1,4.9c0.1,1.8,0.3,2.4,2.4,2.8c0.6,0.1,0.9,0.3,0.9,0.6c0,0.3-0.5,0.4-0.9,0.4c-1.7,0-4-0.2-4.9-0.2 c-1,0-1.3,0.1-2.5,0.1c-0.6,0-0.9-0.2-0.9-0.5c0-0.2,0.3-0.4,1-0.6c1.7-0.4,1.8-0.9,1.9-2.4c0.1-1.2,0.2-4.6,0.2-7.4 C60.2,32.5,60.2,28.4,60.1,27.3z"/><path d="M80.4,24.1c0.2,0.1,0.4,0.6,0.4,0.6c0.1,0.6,0.3,2.5,0.3,2.7c0,0.6,0,0.9-0.2,0.9c-0.3,0-0.7-0.2-0.8-0.7 c-0.4-1.2-1.3-2.2-1.6-2.4c-0.6-0.5-1.4-0.8-2.3-0.8c-2.2,0-3.8,1.7-3.8,3.9c0,2.3,1.7,3.4,4.6,5.3c2.5,1.7,4.6,3.4,4.6,6.4 c0,1.7-0.9,3.5-2.7,4.7c-1.1,0.7-3,1.2-4.5,1.2c-1.1,0-3.3-0.4-4.3-0.9c-0.3-0.2-0.8-0.9-0.8-1.1c-0.2-1.1-0.5-2.6-0.5-3.1 c0-0.1,0.3-0.6,0.5-0.6c0.3,0,0.8,0.9,1.2,1.9c0.9,1.8,3,2.6,4.3,2.6c2.3,0,4-1.6,4-4c0-1.4-0.7-2.9-4.1-5.1 c-2.8-1.8-4.8-3.7-4.8-6.5c0-1.6,0.7-3,1.8-4c1-0.9,2.6-1.6,4.9-1.6C78.1,23.5,79.9,24,80.4,24.1z"/></g><path d="M93.5,49.3v-29c0-0.3,0.2-0.5,0.5-0.5l0,0c0.3,0,0.5,0.2,0.5,0.5l0,0v29c0,0.3-0.2,0.5-0.5,0.5l0,0	C93.8,49.8,93.5,49.6,93.5,49.3L93.5,49.3z"/><g><path d="M109.6,32.7c-1.6,0-2.9-0.9-2.9-3.4c0-2.1,1.3-3.3,2.9-3.3h1.9c0.1,0,0.1,0,0.1,0.1l-0.1,0.7c0,0.1-0.1,0.1-0.2,0.1 c-0.6-0.2-0.8-0.3-1.8-0.3c-1,0-1.5,1-1.5,2.8c0,2.2,0.9,2.8,1.9,2.8c0.5,0,1-0.3,1.4-0.7c0,0,0.1,0,0.1,0l0.3,0.3c0,0,0,0.1,0,0.1 C111.2,32.4,110.4,32.7,109.6,32.7z"/><path d="M117.5,32.6h-4.1c-0.1,0-0.1,0-0.1-0.1l0-3.2l0-3.2c0-0.1,0-0.1,0.1-0.1h4c0.1,0,0.2,0,0.2,0.1v0.5c0,0.1-0.1,0.1-0.2,0.1 c0,0-1.2-0.2-1.7-0.2h-0.9c-0.1,0-0.3,0.1-0.3,0.3l0,2c0,0,0,0.1,0.1,0.1l2-0.1c0.1,0,0.1,0,0.1,0.1v0.5c0,0.1-0.1,0.1-0.1,0.1 l-2-0.1c0,0-0.1,0-0.1,0.1l0,2.3c0,0.1,0.1,0.3,0.3,0.3h0.9c0.6,0,1.9-0.2,1.9-0.2c0.1,0,0.2,0,0.2,0.1v0.6 C117.7,32.6,117.6,32.6,117.5,32.6z"/><path d="M124.5,30.8v1.8c0,0.2-0.6,0.2-0.6,0.1l-3.5-4.8c-0.1-0.1-0.1,0-0.1,0l0.1,4.5c0,0.1,0,0.2-0.1,0.2h-0.8 c-0.1,0-0.1-0.1-0.1-0.2l0.1-4.7l0-1.6c0-0.1,0-0.1,0.1-0.1h0.6c0.1,0,0.2,0,0.2,0.1l3.1,4.3c0.1,0.1,0.2,0.1,0.2,0l-0.1-4.1 c0-0.1,0-0.2,0.1-0.2h0.7c0.1,0,0.1,0.1,0.1,0.2L124.5,30.8z"/><path d="M131.3,26.6c0,0.1-0.1,0.1-0.1,0.1c0,0-1.1-0.1-1.7-0.1c-0.1,0-0.2,0.1-0.2,0.2l0,2.6l0,3.2c0,0.1,0,0.1-0.1,0.1h-1 c-0.1,0-0.1,0-0.1-0.1l0-3.2l0-2.6c0-0.1-0.1-0.2-0.2-0.2c-0.6,0-1.7,0.1-1.7,0.1c-0.1,0-0.1,0-0.1-0.1l0-0.5 c0-0.1,0.1-0.1,0.2-0.1h4.9c0.1,0,0.2,0,0.2,0.1L131.3,26.6z"/><path d="M137.1,32.6H133c-0.1,0-0.1,0-0.1-0.1l0-3.2l0-3.2c0-0.1,0-0.1,0.1-0.1h4c0.1,0,0.2,0,0.2,0.1v0.5c0,0.1-0.1,0.1-0.2,0.1 c0,0-1.2-0.2-1.7-0.2h-0.9c-0.1,0-0.3,0.1-0.3,0.3l0,2c0,0,0,0.1,0.1,0.1l2-0.1c0.1,0,0.1,0,0.1,0.1v0.5c0,0.1-0.1,0.1-0.1,0.1 l-2-0.1c0,0-0.1,0-0.1,0.1l0,2.3c0,0.1,0.1,0.3,0.3,0.3h0.9c0.6,0,1.9-0.2,1.9-0.2c0.1,0,0.2,0,0.2,0.1v0.6 C137.3,32.6,137.2,32.6,137.1,32.6z"/><path d="M144.1,32.6h-1.2c-0.1,0-0.1-0.1-0.2-0.1l-1.4-2.5c-0.2-0.3-0.4-0.4-0.6-0.4h-0.4c-0.1,0-0.2,0.1-0.2,0.2l0,2.8 c0,0.1,0,0.1-0.1,0.1h-1c-0.1,0-0.1,0-0.1-0.1l0-3.2l0-3.2c0-0.1,0-0.1,0.1-0.1h2.9c1,0,1.8,0.7,1.8,1.6c0,0.9-0.7,1.6-1.6,1.8 c-0.1,0-0.1,0.1,0,0.1c0.1,0.1,0.2,0.2,0.4,0.5l1.5,2.1l0.3,0.4C144.2,32.6,144.2,32.6,144.1,32.6z M141.1,26.4h-0.7 c-0.1,0-0.3,0.1-0.3,0.3l0,2.2c0,0.1,0.1,0.2,0.2,0.2h0.4c1,0,1.6-0.4,1.6-1.4C142.3,26.9,141.8,26.4,141.1,26.4z"/><path d="M153,26.7c0,0-1.3-0.2-1.7-0.2h-0.8c-0.1,0-0.3,0.1-0.3,0.3l0,2c0,0,0,0.1,0.1,0.1l1.9-0.1c0.1,0,0.1,0,0.1,0.1v0.5 c0,0.1-0.1,0.1-0.1,0.1l-1.9-0.1c0,0-0.1,0-0.1,0.1l0,3c0,0.1,0,0.1-0.1,0.1h-1c-0.1,0-0.1,0-0.1-0.1l0-3.2l0-3.2 c0-0.1,0-0.1,0.1-0.1h3.9c0.1,0,0.2,0,0.2,0.1v0.5C153.2,26.7,153.1,26.7,153,26.7z"/><path d="M157.1,32.8c-2.2,0-2.9-1.7-2.9-3.5c0-1.8,0.7-3.5,2.9-3.5c2.2,0,2.9,1.7,2.9,3.5C160,31,159.3,32.8,157.1,32.8z M157.1,26.3c-1.3,0-1.5,1.6-1.5,2.9c0,1.2,0.1,3.2,1.6,3.2c1.3,0,1.5-1.6,1.5-2.9C158.7,28.2,158.6,26.3,157.1,26.3z"/><path d="M167.1,32.6h-1.2c-0.1,0-0.1-0.1-0.2-0.1l-1.4-2.5c-0.2-0.3-0.4-0.4-0.6-0.4h-0.4c-0.1,0-0.2,0.1-0.2,0.2l0,2.8 c0,0.1,0,0.1-0.1,0.1h-1c-0.1,0-0.1,0-0.1-0.1l0-3.2l0-3.2c0-0.1,0-0.1,0.1-0.1h2.9c1,0,1.8,0.7,1.8,1.6c0,0.9-0.7,1.6-1.6,1.8 c-0.1,0-0.1,0.1,0,0.1c0.1,0.1,0.2,0.2,0.4,0.5l1.5,2.1l0.3,0.4C167.2,32.6,167.2,32.6,167.1,32.6z M164.1,26.4h-0.7 c-0.1,0-0.3,0.1-0.3,0.3l0,2.2c0,0.1,0.1,0.2,0.2,0.2h0.4c1,0,1.6-0.4,1.6-1.4C165.3,26.9,164.8,26.4,164.1,26.4z"/><path d="M174.1,32.7c-1,0-1.7-0.2-2.3-0.5c-0.1,0-0.1-0.1-0.1-0.2l0.2-0.7c0-0.1,0.1-0.1,0.2,0c0.5,0.5,1.2,0.9,2,0.9 c0.6,0,1.3-0.5,1.3-1.1c0-1.7-3.7-1-3.7-3.5c0-1.1,0.8-1.8,2-1.8c1,0,1.8,0.2,2.3,0.2c0.1,0,0.1,0.1,0.1,0.1l-0.2,0.7 c0,0.1-0.1,0.1-0.2,0.1c-0.5-0.3-1-0.6-2-0.6c-0.5,0-1,0.3-1,0.9c0,1.8,3.7,0.9,3.7,3.7C176.5,32.2,175.4,32.7,174.1,32.7z"/><path d="M182.9,26.6c0,0.1-0.1,0.1-0.1,0.1c0,0-1.1-0.1-1.7-0.1c-0.1,0-0.2,0.1-0.2,0.2l0,2.6l0,3.2c0,0.1,0,0.1-0.1,0.1h-1 c-0.1,0-0.1,0-0.1-0.1l0-3.2l0-2.6c0-0.1-0.1-0.2-0.2-0.2c-0.6,0-1.7,0.1-1.7,0.1c-0.1,0-0.1,0-0.1-0.1l0-0.5 c0-0.1,0.1-0.1,0.2-0.1h4.9c0.1,0,0.2,0,0.2,0.1L182.9,26.6z"/><path d="M189.7,32.6h-1.2c-0.1,0-0.1-0.1-0.2-0.1l-1.4-2.5c-0.2-0.3-0.4-0.4-0.6-0.4h-0.4c-0.1,0-0.2,0.1-0.2,0.2l0,2.8 c0,0.1,0,0.1-0.1,0.1h-1c-0.1,0-0.1,0-0.1-0.1l0-3.2l0-3.2c0-0.1,0-0.1,0.1-0.1h2.9c1,0,1.8,0.7,1.8,1.6c0,0.9-0.7,1.6-1.6,1.8 c-0.1,0-0.1,0.1,0,0.1c0.1,0.1,0.2,0.2,0.4,0.5l1.5,2.1l0.3,0.4C189.9,32.6,189.8,32.6,189.7,32.6z M186.7,26.4H186 c-0.1,0-0.3,0.1-0.3,0.3l0,2.2c0,0.1,0.1,0.2,0.2,0.2h0.4c1,0,1.6-0.4,1.6-1.4C187.9,26.9,187.4,26.4,186.7,26.4z"/><path d="M197,32.6h-1.2c-0.1,0-0.2,0-0.2-0.1c0,0-0.2-0.5-0.3-0.8l-0.4-0.9c0-0.1-0.1-0.1-0.1-0.1h-2.1c-0.1,0-0.1,0-0.1,0.1 l-0.5,1.7c0,0.1-0.1,0.1-0.2,0.1h-0.8c-0.1,0-0.1-0.1-0.1-0.2l2.5-6.4c0-0.1,0.8-0.1,0.8,0l2.3,5.7c0.1,0.3,0.4,0.7,0.4,0.7 C197.1,32.6,197.1,32.6,197,32.6z M193.8,27.7c0-0.1-0.1-0.1-0.1,0l-0.9,2.5c0,0.1,0,0.1,0.1,0.1h1.7c0.1,0,0.1-0.1,0.1-0.1 L193.8,27.7z"/><path d="M202.5,26.6c0,0.1-0.1,0.1-0.1,0.1c0,0-1.1-0.1-1.7-0.1c-0.1,0-0.2,0.1-0.2,0.2l0,2.6l0,3.2c0,0.1,0,0.1-0.1,0.1h-1 c-0.1,0-0.1,0-0.1-0.1l0-3.2l0-2.6c0-0.1-0.1-0.2-0.2-0.2c-0.6,0-1.7,0.1-1.7,0.1c-0.1,0-0.1,0-0.1-0.1l0-0.5 c0-0.1,0.1-0.1,0.2-0.1h4.9c0.1,0,0.2,0,0.2,0.1L202.5,26.6z"/><path d="M208.4,32.6h-4.1c-0.1,0-0.1,0-0.1-0.1l0-3.2l0-3.2c0-0.1,0-0.1,0.1-0.1h4c0.1,0,0.2,0,0.2,0.1v0.5c0,0.1-0.1,0.1-0.2,0.1 c0,0-1.2-0.2-1.7-0.2h-0.9c-0.1,0-0.3,0.1-0.3,0.3l0,2c0,0,0,0.1,0.1,0.1l2-0.1c0.1,0,0.1,0,0.1,0.1v0.5c0,0.1-0.1,0.1-0.1,0.1 l-2-0.1c0,0-0.1,0-0.1,0.1l0,2.3c0,0.1,0.1,0.3,0.3,0.3h0.9c0.6,0,1.9-0.2,1.9-0.2c0.1,0,0.2,0,0.2,0.1v0.6 C208.5,32.6,208.4,32.6,208.4,32.6z"/><path d="M215,32.6c-0.1,0-0.4-0.3-0.4-0.3c-0.1,0-0.1,0-0.2,0c-0.4,0.2-1,0.4-1.7,0.4c-1.6,0-2.9-0.9-2.9-3.4 c0-2.1,1.3-3.3,2.9-3.3h1.9c0.1,0,0.1,0,0.1,0.1l-0.1,0.7c0,0.1-0.1,0.1-0.2,0.1c-0.6-0.2-0.8-0.3-1.8-0.3c-1,0-1.5,1-1.5,2.8 c0,2.2,0.9,2.9,1.9,2.9c0.4,0,1-0.3,1-0.7c0-0.1-0.1-1.8-0.1-1.8s0-0.2,0-0.3c0-0.1,0.1-0.2,0.1-0.2h1c0,0,0.1,0,0.1,0.1v3.2 C215.1,32.6,215,32.6,215,32.6z"/><path d="M218.2,32.6h-1c-0.1,0-0.1,0-0.1-0.1l0-3.2l0-3.2c0-0.1,0-0.1,0.1-0.1h1c0.1,0,0.1,0,0.1,0.1l0,3.2l0,3.2 C218.3,32.6,218.3,32.6,218.2,32.6z"/><path d="M223.1,32.7c-1.6,0-2.9-0.9-2.9-3.4c0-2.1,1.3-3.3,2.9-3.3h1.9c0.1,0,0.1,0,0.1,0.1l-0.1,0.7c0,0.1-0.1,0.1-0.2,0.1 c-0.6-0.2-0.8-0.3-1.8-0.3c-1,0-1.5,1-1.5,2.8c0,2.2,0.9,2.8,1.9,2.8c0.5,0,1-0.3,1.4-0.7c0,0,0.1,0,0.1,0l0.3,0.3c0,0,0,0.1,0,0.1 C224.7,32.4,223.9,32.7,223.1,32.7z"/><path d="M233.8,30l-0.8,0v2.5c0,0.1-0.1,0.1-0.1,0.1h-2.5c-1.2,0-1.8-0.8-1.8-1.5c0-0.7,0.5-1.3,1.3-1.5c-0.5-0.2-0.8-0.7-0.8-1.2 c0-0.9,0.7-1.4,1.7-1.4h1c0.1,0,0.2,0,0.2,0.1l0,0.4c0,0.1-0.1,0.1-0.1,0.1c0,0-0.4-0.2-0.6-0.2c-0.5,0-0.9,0.3-0.9,1 c0,0.6,0.4,1.1,1,1.1h0.8v-0.7c0-0.1,0.1-0.1,0.1-0.1l0.8,0.1c0.1,0,0.1,0,0.1,0.1v0.6h0.8c0.1,0,0.1,0,0.1,0.1v0.3 C233.9,29.9,233.9,30,233.8,30z M232,29.9l-1,0c-0.7,0-1,0.5-1,1.1c0,0.6,0.4,1.2,0.9,1.2c0.5,0,0.8,0,1.1-0.1V29.9z"/><path d="M108,45.5h-1c-0.1,0-0.1,0-0.1-0.1l0-3.2l0-3.2c0-0.1,0-0.1,0.1-0.1h1c0.1,0,0.1,0,0.1,0.1l0,3.2l0,3.2 C108.1,45.5,108.1,45.5,108,45.5z"/><path d="M115.3,43.7v1.8c0,0.2-0.6,0.2-0.6,0.1l-3.5-4.8c-0.1-0.1-0.1,0-0.1,0l0.1,4.5c0,0.1,0,0.2-0.1,0.2h-0.8 c-0.1,0-0.1-0.1-0.1-0.2l0.1-4.7l0-1.6c0-0.1,0-0.1,0.1-0.1h0.6c0.1,0,0.2,0,0.2,0.1l3.1,4.3c0.1,0.1,0.2,0.1,0.2,0l-0.1-4.1 c0-0.1,0-0.2,0.1-0.2h0.7c0.1,0,0.1,0.1,0.1,0.2L115.3,43.7z"/><path d="M122.1,39.5c0,0.1-0.1,0.1-0.1,0.1c0,0-1.1-0.1-1.7-0.1c-0.1,0-0.2,0.1-0.2,0.2l0,2.6l0,3.2c0,0.1,0,0.1-0.1,0.1h-1 c-0.1,0-0.1,0-0.1-0.1l0-3.2l0-2.6c0-0.1-0.1-0.2-0.2-0.2c-0.6,0-1.7,0.1-1.7,0.1c-0.1,0-0.1,0-0.1-0.1l0-0.5 c0-0.1,0.1-0.1,0.2-0.1h4.9c0.1,0,0.2,0,0.2,0.1L122.1,39.5z"/><path d="M128,45.5h-4.1c-0.1,0-0.1,0-0.1-0.1l0-3.2l0-3.2c0-0.1,0-0.1,0.1-0.1h4c0.1,0,0.2,0,0.2,0.1v0.5c0,0.1-0.1,0.1-0.2,0.1 c0,0-1.2-0.2-1.7-0.2h-0.9c-0.1,0-0.3,0.1-0.3,0.3l0,2c0,0,0,0.1,0.1,0.1l2-0.1c0.1,0,0.1,0,0.1,0.1v0.5c0,0.1-0.1,0.1-0.1,0.1 l-2-0.1c0,0-0.1,0-0.1,0.1l0,2.3c0,0.1,0.1,0.3,0.3,0.3h0.9c0.6,0,1.9-0.2,1.9-0.2c0.1,0,0.2,0,0.2,0.1v0.6 C128.1,45.5,128.1,45.5,128,45.5z"/><path d="M135,45.5h-1.2c-0.1,0-0.1-0.1-0.2-0.1l-1.4-2.5c-0.2-0.3-0.4-0.4-0.6-0.4h-0.4c-0.1,0-0.2,0.1-0.2,0.2l0,2.8 c0,0.1,0,0.1-0.1,0.1h-1c-0.1,0-0.1,0-0.1-0.1l0-3.2l0-3.2c0-0.1,0-0.1,0.1-0.1h2.9c1,0,1.8,0.7,1.8,1.6c0,0.9-0.7,1.6-1.6,1.8 c-0.1,0-0.1,0.1,0,0.1c0.1,0.1,0.2,0.2,0.4,0.5l1.5,2.1l0.3,0.4C135.1,45.4,135,45.5,135,45.5z M132,39.3h-0.7 c-0.1,0-0.3,0.1-0.3,0.3l0,2.2c0,0.1,0.1,0.2,0.2,0.2h0.4c1,0,1.6-0.4,1.6-1.4C133.1,39.8,132.7,39.3,132,39.3z"/><path d="M141.8,43.7v1.8c0,0.2-0.6,0.2-0.6,0.1l-3.5-4.8c-0.1-0.1-0.1,0-0.1,0l0.1,4.5c0,0.1,0,0.2-0.1,0.2h-0.8 c-0.1,0-0.1-0.1-0.1-0.2l0.1-4.7l0-1.6c0-0.1,0-0.1,0.1-0.1h0.6c0.1,0,0.2,0,0.2,0.1l3.1,4.3c0.1,0.1,0.2,0.1,0.2,0l-0.1-4.1 c0-0.1,0-0.2,0.1-0.2h0.7c0.1,0,0.1,0.1,0.1,0.2L141.8,43.7z"/><path d="M149.2,45.5h-1.2c-0.1,0-0.2,0-0.2-0.1c0,0-0.2-0.5-0.3-0.8l-0.4-0.9c0-0.1-0.1-0.1-0.1-0.1h-2.1c-0.1,0-0.1,0-0.1,0.1 l-0.5,1.7c0,0.1-0.1,0.1-0.2,0.1h-0.8c-0.1,0-0.1-0.1-0.1-0.2l2.5-6.4c0-0.1,0.8-0.1,0.8,0l2.3,5.7c0.1,0.3,0.4,0.7,0.4,0.7 C149.4,45.5,149.3,45.5,149.2,45.5z M146.1,40.6c0-0.1-0.1-0.1-0.1,0l-0.9,2.5c0,0.1,0,0.1,0.1,0.1h1.7c0.1,0,0.1-0.1,0.1-0.1 L146.1,40.6z"/><path d="M154.8,39.5c0,0.1-0.1,0.1-0.1,0.1c0,0-1.1-0.1-1.7-0.1c-0.1,0-0.2,0.1-0.2,0.2l0,2.6l0,3.2c0,0.1,0,0.1-0.1,0.1h-1 c-0.1,0-0.1,0-0.1-0.1l0-3.2l0-2.6c0-0.1-0.1-0.2-0.2-0.2c-0.6,0-1.7,0.1-1.7,0.1c-0.1,0-0.1,0-0.1-0.1l0-0.5 c0-0.1,0.1-0.1,0.2-0.1h4.9c0.1,0,0.2,0,0.2,0.1L154.8,39.5z"/><path d="M157.5,45.5h-1c-0.1,0-0.1,0-0.1-0.1l0-3.2l0-3.2c0-0.1,0-0.1,0.1-0.1h1c0.1,0,0.1,0,0.1,0.1l0,3.2l0,3.2 C157.6,45.5,157.6,45.5,157.5,45.5z"/><path d="M162.3,45.7c-2.2,0-2.9-1.7-2.9-3.5c0-1.8,0.7-3.5,2.9-3.5c2.2,0,2.9,1.7,2.9,3.5C165.2,43.9,164.5,45.7,162.3,45.7z M162.3,39.2c-1.3,0-1.5,1.6-1.5,2.9c0,1.2,0.1,3.2,1.6,3.2c1.3,0,1.5-1.6,1.5-2.9C163.9,41.1,163.8,39.2,162.3,39.2z"/><path d="M172.2,43.7v1.8c0,0.2-0.6,0.2-0.6,0.1l-3.5-4.8c-0.1-0.1-0.1,0-0.1,0l0.1,4.5c0,0.1,0,0.2-0.1,0.2h-0.8 c-0.1,0-0.1-0.1-0.1-0.2l0.1-4.7l0-1.6c0-0.1,0-0.1,0.1-0.1h0.6c0.1,0,0.2,0,0.2,0.1l3.1,4.3c0.1,0.1,0.2,0.1,0.2,0l-0.1-4.1 c0-0.1,0-0.2,0.1-0.2h0.7c0.1,0,0.1,0.1,0.1,0.2L172.2,43.7z"/><path d="M179.7,45.5h-1.2c-0.1,0-0.2,0-0.2-0.1c0,0-0.2-0.5-0.3-0.8l-0.4-0.9c0-0.1-0.1-0.1-0.1-0.1h-2.1c-0.1,0-0.1,0-0.1,0.1 l-0.5,1.7c0,0.1-0.1,0.1-0.2,0.1h-0.8c-0.1,0-0.1-0.1-0.1-0.2l2.5-6.4c0-0.1,0.8-0.1,0.8,0l2.3,5.7c0.1,0.3,0.4,0.7,0.4,0.7 C179.8,45.5,179.8,45.5,179.7,45.5z M176.5,40.6c0-0.1-0.1-0.1-0.1,0l-0.9,2.5c0,0.1,0,0.1,0.1,0.1h1.7c0.1,0,0.1-0.1,0.1-0.1 L176.5,40.6z"/><path d="M185.2,45.5h-3.8c-0.1,0-0.1,0-0.1-0.1l0-3.2l0-3.2c0-0.1,0-0.1,0.1-0.1h1c0.1,0,0.1,0,0.1,0.1l0,3.2l0,2.5 c0,0.1,0.1,0.3,0.3,0.3h0.8c0.6,0,1.7-0.2,1.7-0.2c0.1,0,0.2,0,0.2,0.1v0.6C185.4,45.5,185.3,45.5,185.2,45.5z"/><path d="M192.3,45.6c-1,0-1.7-0.2-2.3-0.5c-0.1,0-0.1-0.1-0.1-0.2l0.2-0.7c0-0.1,0.1-0.1,0.2,0c0.5,0.5,1.2,0.9,2,0.9 c0.6,0,1.3-0.5,1.3-1.1c0-1.7-3.7-1-3.7-3.5c0-1.1,0.8-1.8,2-1.8c1,0,1.8,0.2,2.3,0.2c0.1,0,0.1,0.1,0.1,0.1l-0.2,0.7 c0,0.1-0.1,0.1-0.2,0.1c-0.5-0.3-1-0.6-2-0.6c-0.5,0-1,0.3-1,0.9c0,1.8,3.7,0.9,3.7,3.7C194.7,45.1,193.7,45.6,192.3,45.6z"/><path d="M201.1,39.5c0,0.1-0.1,0.1-0.1,0.1c0,0-1.1-0.1-1.7-0.1c-0.1,0-0.2,0.1-0.2,0.2l0,2.6l0,3.2c0,0.1,0,0.1-0.1,0.1h-1 c-0.1,0-0.1,0-0.1-0.1l0-3.2l0-2.6c0-0.1-0.1-0.2-0.2-0.2c-0.6,0-1.7,0.1-1.7,0.1c-0.1,0-0.1,0-0.1-0.1l0-0.5 c0-0.1,0.1-0.1,0.2-0.1h4.9c0.1,0,0.2,0,0.2,0.1L201.1,39.5z"/><path d="M207.8,39.8l-0.1,3.7c0,1.4-0.8,2.2-2.3,2.2c-1.7,0-2.6-0.7-2.6-2.2l0-3.8l0-0.7c0-0.1,0-0.1,0.1-0.1h1 c0.1,0,0.1,0,0.1,0.1l0,0.7v3.7c0,1,0.7,1.6,1.4,1.6c0.7,0,1.4-0.4,1.4-1.5l0-3.7c0-0.3,0-0.8,0-0.8c0-0.1,0-0.2,0.1-0.2h0.9 c0.1,0,0.1,0.1,0.1,0.2C207.8,39,207.8,39.5,207.8,39.8z"/><path d="M212,45.5c-1.2,0-1.3-0.1-1.6-0.1c-0.3,0-0.3,0.1-0.5,0.1c-0.1,0-0.1,0-0.1-0.1l0-3.2l0-3.2c0-0.1,0-0.1,0.1-0.1h2.4 c1.4,0,2.7,1.1,2.7,3.2C215,43.9,213.9,45.5,212,45.5z M212,39.3h-0.7c-0.1,0-0.2,0.1-0.2,0.2l0,2.6l0,2.3c0,0.4,0.3,0.6,0.8,0.6 c1.6,0,1.8-1.9,1.8-3.1C213.7,40,212.8,39.3,212,39.3z"/><path d="M217.9,45.5h-1c-0.1,0-0.1,0-0.1-0.1l0-3.2l0-3.2c0-0.1,0-0.1,0.1-0.1h1c0.1,0,0.1,0,0.1,0.1l0,3.2l0,3.2 C218.1,45.5,218,45.5,217.9,45.5z"/><path d="M224.4,45.5h-4.1c-0.1,0-0.1,0-0.1-0.1l0-3.2l0-3.2c0-0.1,0-0.1,0.1-0.1h4c0.1,0,0.2,0,0.2,0.1v0.5c0,0.1-0.1,0.1-0.2,0.1 c0,0-1.2-0.2-1.7-0.2h-0.9c-0.1,0-0.3,0.1-0.3,0.3l0,2c0,0,0,0.1,0.1,0.1l2-0.1c0.1,0,0.1,0,0.1,0.1v0.5c0,0.1-0.1,0.1-0.1,0.1 l-2-0.1c0,0-0.1,0-0.1,0.1l0,2.3c0,0.1,0.1,0.3,0.3,0.3h0.9c0.6,0,1.9-0.2,1.9-0.2c0.1,0,0.2,0,0.2,0.1v0.6 C224.6,45.5,224.5,45.5,224.4,45.5z"/><path d="M228.4,45.6c-1,0-1.7-0.2-2.3-0.5c-0.1,0-0.1-0.1-0.1-0.2l0.2-0.7c0-0.1,0.1-0.1,0.2,0c0.5,0.5,1.2,0.9,2,0.9 c0.6,0,1.3-0.5,1.3-1.1c0-1.7-3.7-1-3.7-3.5c0-1.1,0.8-1.8,2-1.8c1,0,1.8,0.2,2.3,0.2c0.1,0,0.1,0.1,0.1,0.1l-0.2,0.7 c0,0.1-0.1,0.1-0.2,0.1c-0.5-0.3-1-0.6-2-0.6c-0.5,0-1,0.3-1,0.9c0,1.8,3.7,0.9,3.7,3.7C230.8,45.1,229.8,45.6,228.4,45.6z"/></g></svg>