<?xml version="1.0" encoding="utf-8"?>
<!-- Generator: Adobe Illustrator 19.2.1, SVG Export Plug-In . SVG Version: 6.00 Build 0)  -->
<svg version="1.1"
	 id="svg4619" inkscape:version="0.48.2 r9819" sodipodi:docname="square-18.svg" xmlns:cc="http://creativecommons.org/ns#" xmlns:dc="http://purl.org/dc/elements/1.1/" xmlns:inkscape="http://www.inkscape.org/namespaces/inkscape" xmlns:rdf="http://www.w3.org/1999/02/22-rdf-syntax-ns#" xmlns:sodipodi="http://sodipodi.sourceforge.net/DTD/sodipodi-0.dtd" xmlns:svg="http://www.w3.org/2000/svg"
	 xmlns="http://www.w3.org/2000/svg" xmlns:xlink="http://www.w3.org/1999/xlink" x="0px" y="0px" width="18px" height="18px"
	 viewBox="0 0 18 18" style="enable-background:new 0 0 18 18;" xml:space="preserve">
<style type="text/css">
	.st0{opacity:0.3;fill:#444444;stroke:#FFFFFF;stroke-width:2;enable-background:new    ;}
	.st1{fill:#FF6600;}
	.st2{fill:none;}
</style>
<sodipodi:namedview  bordercolor="#666666" borderopacity="1.0" id="base" inkscape:current-layer="layer1" inkscape:cx="5.9619453" inkscape:cy="9.448034" inkscape:document-units="px" inkscape:guide-bbox="true" inkscape:object-paths="true" inkscape:pageopacity="0.0" inkscape:pageshadow="2" inkscape:snap-bbox="true" inkscape:snap-nodes="false" inkscape:window-height="662" inkscape:window-maximized="0" inkscape:window-width="1008" inkscape:window-x="76" inkscape:window-y="40" inkscape:zoom="16" pagecolor="#ffffff" showgrid="true" showguides="true">
	<inkscape:grid  empspacing="5" enabled="true" id="grid4627" snapvisiblegridlinesonly="true" type="xygrid" visible="true">
		</inkscape:grid>
	<sodipodi:guide  id="guide4659" orientation="0,1" position="7,18"></sodipodi:guide>
	<sodipodi:guide  id="guide4661" orientation="1,0" position="18,9"></sodipodi:guide>
	<sodipodi:guide  id="guide4663" orientation="0,1" position="16,17"></sodipodi:guide>
	<sodipodi:guide  id="guide4665" orientation="1,0" position="17,14"></sodipodi:guide>
	<sodipodi:guide  id="guide4667" orientation="1,0" position="0,16"></sodipodi:guide>
	<sodipodi:guide  id="guide4669" orientation="0,1" position="8,0"></sodipodi:guide>
	<sodipodi:guide  id="guide4671" orientation="1,0" position="2,10"></sodipodi:guide>
	<sodipodi:guide  id="guide4673" orientation="0,1" position="12,2"></sodipodi:guide>
</sodipodi:namedview>
<g id="layer1" transform="translate(0,-1034.3622)" inkscape:groupmode="layer" inkscape:label="Layer 1">
	
		<g id="triangle-stroked-18" transform="translate(48,-112)" inkscape:export-xdpi="89.996864" inkscape:export-ydpi="89.996864" inkscape:label="triangle-stroked-18">
		<g id="g21244">
			<path id="path21161" inkscape:connector-curvature="0" class="st0" d="M-38.5,1149.4c-0.4,0-0.5,0.2-0.6,0.4l-5.8,10.5
				c-0.1,0.1-0.1,0.3-0.1,0.4c0,0.5,0.4,0.7,0.7,0.7h11.6c0.4,0,0.7-0.2,0.7-0.7c0-0.1,0-0.3-0.1-0.4l-5.8-10.5
				C-38,1149.5-38.1,1149.4-38.5,1149.4z M-38.5,1151.4l4.5,8.5h-9L-38.5,1151.4z"/>
			<path id="path21090-9-5" inkscape:connector-curvature="0" class="st1" d="M-38.5,1149.4c-0.4,0-0.5,0.2-0.6,0.4l-5.8,10.5
				c-0.1,0.1-0.1,0.3-0.1,0.4c0,0.5,0.4,0.7,0.7,0.7h11.6c0.4,0,0.7-0.2,0.7-0.7c0-0.1,0-0.3-0.1-0.4l-5.8-10.5
				C-38,1149.5-38.1,1149.4-38.5,1149.4z M-38.5,1151.4l4.5,8.5h-9L-38.5,1151.4z"/>
		</g>
		<rect id="rect22047" x="-48" y="1146.4" class="st2" width="18" height="18"/>
	</g>
</g>
</svg>
